Coordinates
version=1
nRows=65
nColumns=12
inDegrees=yes

Units are S.I. units (second, meters, Newtons, ...)
Angles are in degrees

endheader
time	SC_y	SC_z	SC_x	AC_y	AC_z	AC_x	GH_y	GH_z	GH_yy	EL_x	PS_y
       0.0              -24.73          35.19          42.58          53.13         -2.471         -15.41         -133.1          3.258         -169.0          109.5          14.39
   0.02881              -24.73          35.19          42.58          53.13         -2.471          -15.4         -133.1          3.265         -169.0          109.5          14.41
   0.05763              -24.73          35.19          42.58          53.13          -2.47          -15.4         -133.1          3.273         -169.0          109.5          14.42
   0.08644              -24.73          35.19          42.58          53.13         -2.469          -15.4         -133.1          3.282         -169.0          109.5          14.43
    0.1153              -24.73          35.19          42.58          53.14         -2.469         -15.39         -133.1          3.291         -169.0          109.5          14.45
    0.1441              -24.72          35.18          42.58          53.14         -2.468         -15.39         -133.1            3.3         -169.0          109.4          14.47
    0.1729              -24.72          35.18          42.58          53.14         -2.467         -15.38         -133.1          3.311         -169.0          109.4          14.48
    0.2017              -24.72          35.18          42.58          53.14         -2.466         -15.38         -133.1          3.322         -169.0          109.4           14.5
    0.2305              -24.71          35.18          42.58          53.14         -2.465         -15.38         -133.1          3.334         -169.0          109.4          14.52
    0.2593              -24.71          35.18          42.58          53.14         -2.465         -15.37         -133.1          3.346         -169.0          109.4          14.54
    0.2881              -24.71          35.17          42.58          53.14         -2.464         -15.37         -133.1           3.36         -169.0          109.4          14.57
    0.3169               -24.7          35.17          42.58          53.14         -2.462         -15.36         -133.1          3.375         -169.0          109.4          14.59
    0.3458               -24.7          35.17          42.58          53.14         -2.461         -15.35         -133.1          3.391         -169.0          109.3          14.62
    0.3746               -24.7          35.16          42.58          53.14          -2.46         -15.35         -133.1          3.408         -169.0          109.3          14.65
    0.4034              -24.69          35.16          42.58          53.14         -2.459         -15.34         -133.1          3.426         -169.0          109.3          14.68
    0.4322              -24.69          35.16          42.58          53.14         -2.457         -15.33         -133.1          3.446         -169.0          109.3          14.71
     0.461              -24.68          35.15          42.58          53.14         -2.456         -15.32         -133.1          3.468         -169.0          109.3          14.75
    0.4898              -24.67          35.15          42.59          53.15         -2.454         -15.31         -133.2          3.492         -168.9          109.2          14.79
    0.5186              -24.67          35.14          42.59          53.15         -2.452          -15.3         -133.2          3.518         -168.9          109.2          14.83
    0.5475              -24.66          35.14          42.59          53.15          -2.45         -15.29         -133.2          3.546         -168.9          109.2          14.88
    0.5763              -24.65          35.13          42.59          53.15         -2.447         -15.28         -133.2          3.577         -168.9          109.2          14.93
    0.6051              -24.64          35.13          42.59          53.15         -2.445         -15.27         -133.2          3.612         -168.9          109.1          14.99
    0.6339              -24.63          35.12          42.59          53.15         -2.442         -15.25         -133.2           3.65         -168.9          109.1          15.05
    0.6627              -24.62          35.11          42.59          53.16         -2.439         -15.24         -133.3          3.692         -168.9          109.0          15.13
    0.6915              -24.61           35.1          42.59          53.16         -2.436         -15.22         -133.3          3.739         -168.9          109.0           15.2
    0.7203               -24.6          35.09           42.6          53.16         -2.432          -15.2         -133.3          3.791         -168.9          108.9          15.29
    0.7491              -24.58          35.08           42.6          53.16         -2.427         -15.17         -133.3          3.849         -168.9          108.9          15.39
     0.778              -24.57          35.07           42.6          53.17         -2.422         -15.15         -133.4          3.915         -168.9          108.8           15.5
    0.8068              -24.55          35.05           42.6          53.17         -2.417         -15.12         -133.4          3.989         -168.9          108.7          15.63
    0.8356              -24.53          35.04          42.61          53.17         -2.411         -15.09         -133.4          4.073         -168.9          108.6          15.77
    0.8644               -24.5          35.02          42.61          53.18         -2.404         -15.05         -133.5           4.17         -168.9          108.5          15.93
    0.8932              -24.48           35.0          42.61          53.19         -2.395         -15.01         -133.5           4.28         -168.9          108.4          16.12
     0.922              -24.44          34.97          42.62          53.19         -2.386         -14.96         -133.6          4.408         -168.9          108.3          16.33
    0.9508              -24.41          34.95          42.62           53.2         -2.375          -14.9         -133.7          4.556         -168.9          108.1          16.58
    0.9797              -24.36          34.91          42.63          53.21         -2.362         -14.83         -133.7          4.729         -168.9          107.9          16.87
     1.008              -24.31          34.87          42.64          53.22         -2.347         -14.75         -133.8          4.933         -168.9          107.7          17.22
     1.037              -24.25          34.83          42.64          53.23         -2.329         -14.66         -133.9          5.176         -168.9          107.5          17.63
     1.066              -24.18          34.77          42.66          53.25         -2.308         -14.55         -134.1          5.467         -168.9          107.2          18.12
     1.095              -24.09          34.71          42.67          53.26         -2.282         -14.41         -134.2          5.819         -168.9          106.8          18.71
     1.124              -23.98          34.62          42.68          53.28          -2.25         -14.24         -134.4           6.25         -168.9          106.3          19.44
     1.153              -23.84          34.52           42.7          53.31          -2.21         -14.03         -134.7          6.781         -168.8          105.8          20.33
     1.181              -23.68           34.4          42.73          53.34         -2.161         -13.78         -135.0          7.443         -168.8          105.1          21.45
      1.21              -23.47          34.24          42.75          53.39           -2.1         -13.45         -135.4          8.277         -168.8          104.2          22.85
     1.239               -23.2          34.04          42.79          53.44         -2.021         -13.04         -135.9          9.337         -168.8          103.1          24.64
     1.268              -22.85          33.78          42.84          53.51         -1.921         -12.51         -136.5          10.69         -168.7          101.7          26.93
     1.297              -22.41          33.45           42.9           53.6         -1.792         -11.84         -137.3          12.44         -168.7          99.86          29.86
     1.325              -21.85          33.03          42.98          53.71         -1.627         -10.97         -138.3          14.66         -168.6          97.53          33.61
     1.354              -21.15           32.5          43.08          53.85          -1.42         -9.883         -139.6          17.46         -168.5           94.6          38.32
     1.383              -20.28          31.85           43.2          54.02         -1.168         -8.557         -141.2          20.87         -168.4          91.02          44.07
     1.412              -19.28           31.1          43.34          54.22        -0.8759         -7.021         -143.0          24.82         -168.2          86.88          50.73
     1.441               -18.2          30.28          43.49          54.44        -0.5594         -5.357         -145.0          29.09         -168.1          82.39          57.93
     1.469              -17.12          29.47          43.64          54.65        -0.2428         -3.694         -146.9          33.37         -168.0           77.9          65.14
     1.498              -16.12          28.72          43.78          54.85        0.04949         -2.157         -148.8          37.32         -167.8          73.76           71.8
     1.527              -15.26          28.07          43.91          55.03         0.3017        -0.8316         -150.3          40.73         -167.7          70.18          77.55
     1.556              -14.56          27.54           44.0          55.17         0.5087         0.2561         -151.6          43.53         -167.6          67.25          82.26
     1.585              -13.99          27.12          44.08          55.28         0.6733          1.121         -152.7          45.75         -167.5          64.92          86.01
     1.614              -13.55          26.79          44.15          55.37         0.8021          1.798         -153.5          47.49         -167.5          63.09          88.94
     1.642              -13.21          26.53          44.19          55.43         0.9025          2.326         -154.1          48.85         -167.4          61.67          91.23
     1.671              -12.94          26.33          44.23          55.49          0.981          2.739         -154.6          49.91         -167.4          60.56          93.02
       1.7              -12.73          26.17          44.26          55.53          1.043          3.063         -155.0          50.75         -167.4          59.68          94.42
     1.729              -12.56          26.05          44.28          55.56          1.092           3.32         -155.3          51.41         -167.3          58.99          95.54
     1.758              -12.43          25.94           44.3          55.59          1.131          3.527         -155.5          51.94         -167.3          58.43          96.43
     1.786              -12.32          25.86          44.32          55.61          1.163          3.694         -155.7          52.37         -167.3          57.98          97.16
     1.815              -12.23           25.8          44.33          55.63          1.189          3.831         -155.9          52.72         -167.3          57.61          97.75
     1.844              -12.16          25.74          44.34          55.64           1.21          3.944         -156.0          53.01         -167.3           57.3          98.24
